<svg xmlns="http://www.w3.org/2000/svg" width="226" height="424.104" viewBox="0 0 226 424.104">
  <g id="undraw_updated_resume_re_q1or" transform="translate(-553.32 -155.84)">
    <path id="Tracé_3" data-name="Tracé 3" d="M656.072,567.394H643.813l-5.833-47.288h18.1Z" fill="#ffb7b7"/>
    <path id="Tracé_4" data-name="Tracé 4" d="M869.539,739.306H830.008v-.5a15.387,15.387,0,0,1,15.385-15.386H869.54Z" transform="translate(-210.34 -160.028)" fill="#2f2e41"/>
    <path id="Tracé_5" data-name="Tracé 5" d="M686.016,567.394h12.26l5.832-47.288H686.014Z" fill="#ffb7b7"/>
    <path id="Tracé_6" data-name="Tracé 6" d="M893.229,723.42h24.145A15.387,15.387,0,0,1,932.76,738.8v.5H893.23Z" transform="translate(-210.34 -160.028)" fill="#2f2e41"/>
    <circle id="Ellipse_2" data-name="Ellipse 2" cx="21.428" cy="21.428" r="21.428" transform="translate(605.43 197.978) rotate(-63.58)" fill="#ffb7b7"/>
    <path id="Tracé_7" data-name="Tracé 7" d="M828.719,495.759s-6.767,28.195-3.383,41.728S838.869,643.5,838.869,643.5l6.767,73.307,27.067,2.256L869.32,633.35l3.383-74.435,19.173,72.179v85.968l28.706,1.128.617-111.907s2.256-87.968-12.406-99.246S891.876,493.5,891.876,493.5Z" transform="translate(-210.34 -160.028)" fill="#2f2e41"/>
    <path id="Tracé_8" data-name="Tracé 8" d="M869.58,371.7l25.679,13.534,3.383,117.291s-14.661-9.022-37.217,2.256-37.217,3.383-37.217,3.383l13.534-50.751L832.1,389.746l8.065-7.32Z" transform="translate(-210.34 -160.028)" fill="#cbcbcb"/>
    <path id="Tracé_9" data-name="Tracé 9" d="M840.17,380.291l-4.685,3.816s-29.323,14.661-30.451,24.811l20.3,55.262s5.639,12.406,1.128,16.917-9.022,15.789-7.895,21.428-6.767,29.323,2.256,29.323,30.451-54.134,29.323-75.562S848.239,378.73,840.17,380.291Z" transform="translate(-210.34 -160.028)" fill="#2f2e41"/>
    <path id="Tracé_10" data-name="Tracé 10" d="M859.884,372.972l10.33-1.719S908.559,381.4,914.2,398.32l-15.789,39.473s11.278,72.179,7.895,72.179H902.92s9.022,6.767,3.383,9.022-19.173,20.3-22.556,12.406-23.684-101.5-21.428-121.8S857.881,375.1,859.884,372.972Z" transform="translate(-210.34 -160.028)" fill="#2f2e41"/>
    <path id="Tracé_11" data-name="Tracé 11" d="M864.367,327.366l1-2.02-5.05-2.509s-5.571-9.065-15.652-6.517-14.616,4.072-14.616,4.072l-5.037,2.535,2.528,2.515-4.535,1.525,3.03,1.505-3.525,2.026,1.9,10.388s3.152-7.879,9.212-4.868,17.145-1.556,17.145-1.556L860.4,353.1s1.987-6.533,5.529-4.791C865.926,348.307,874.976,333.9,864.367,327.366Z" transform="translate(-210.34 -160.028)" fill="#2f2e41"/>
    <path id="Tracé_12" data-name="Tracé 12" d="M895.736,525.265a10.056,10.056,0,0,1,7.187-13.642l4.341-35.47,14.146,12.031-6.291,31.839a10.11,10.11,0,0,1-19.383,5.243Z" transform="translate(-210.34 -160.028)" fill="#ffb7b7"/>
    <path id="Tracé_13" data-name="Tracé 13" d="M835.234,522.824a10.056,10.056,0,0,0-8.593-12.8l-8.078-34.81-12.79,13.463,9.632,30.992a10.11,10.11,0,0,0,19.829,3.158Z" transform="translate(-210.34 -160.028)" fill="#ffb7b7"/>
    <path id="Tracé_14" data-name="Tracé 14" d="M896.281,389.129s14.661-5.639,19.173,11.278,10.15,50.751,10.15,50.751c.28,18.814-.72,18.814,0,37.217l-3.383,16.917-19.173-2.256.836-43.065L894.026,416.2Z" transform="translate(-210.34 -160.028)" fill="#2f2e41"/>
    <path id="Tracé_15" data-name="Tracé 15" d="M815.185,402.152l-6.951.744s-6.582,4.9-6.582,16.173-1.128,45.112-1.128,45.112-.64.792,4.511,29.323c2.511,13.906,6.849,20.469,6.849,20.469l14-13-1.677-33.408,4.511-18.045Z" transform="translate(-210.34 -160.028)" fill="#2f2e41"/>
    <path id="Tracé_16" data-name="Tracé 16" d="M988.66,739.972h-224a1,1,0,0,1,0-2h224a1,1,0,0,1,0,2Z" transform="translate(-210.34 -160.028)" fill="#cbcbcb"/>
  </g>
</svg>
